<svg width="35" height="35" viewBox="0 0 35 35" fill="none" xmlns="http://www.w3.org/2000/svg">
<path fill-rule="evenodd" clip-rule="evenodd" d="M14.5614 5.69141C13.4316 5.69141 12.5156 6.60734 12.5156 7.73721H11.0807C9.12534 7.73721 8.14764 7.73721 7.4453 8.20649C7.14126 8.40965 6.8802 8.6707 6.67705 8.97475C6.20776 9.67708 6.20776 10.6548 6.20776 12.6102V25.8368C6.20776 28.4621 6.20776 29.7748 7.02334 30.5904C7.83892 31.406 9.15157 31.406 11.7769 31.406H22.9151C25.5404 31.406 26.8531 31.406 27.6687 30.5904C28.4842 29.7748 28.4842 28.4621 28.4842 25.8368V12.6102C28.4842 10.6548 28.4842 9.67708 28.015 8.97475C27.8118 8.6707 27.5507 8.40965 27.2467 8.20649C26.5444 7.73721 25.5667 7.73721 23.6113 7.73721H22.1764C22.1764 6.60734 21.2604 5.69141 20.1306 5.69141H14.5614ZM15.2717 7.7372C15.2717 7.36058 15.5771 7.05527 15.9537 7.05527H18.7382C19.1149 7.05527 19.4202 7.36058 19.4202 7.7372C19.4202 8.11382 19.1149 8.41913 18.7382 8.41913H15.9537C15.5771 8.41913 15.2717 8.11382 15.2717 7.7372ZM13.1692 16.8012C12.7926 16.8012 12.4872 17.1065 12.4872 17.4832C12.4872 17.8598 12.7926 18.1651 13.1692 18.1651H21.5229C21.8995 18.1651 22.2048 17.8598 22.2048 17.4832C22.2048 17.1065 21.8995 16.8012 21.5229 16.8012H13.1692ZM13.1692 22.3703C12.7926 22.3703 12.4872 22.6757 12.4872 23.0523C12.4872 23.4289 12.7926 23.7342 13.1692 23.7342L18.7383 23.7342C19.1149 23.7342 19.4202 23.4289 19.4202 23.0523C19.4202 22.6757 19.1149 22.3703 18.7383 22.3703H13.1692Z" fill="white"/>
</svg>
