<svg width="33" height="33" viewBox="0 0 33 33" fill="none" xmlns="http://www.w3.org/2000/svg">
<g clip-path="url(#clip0_184_656)">
<path d="M16.5 2.97129C20.9086 2.97129 21.4307 2.99062 23.1645 3.06797C24.7758 3.13887 25.6459 3.40957 26.226 3.63516C26.993 3.93164 27.5473 4.29258 28.1209 4.86621C28.701 5.44629 29.0555 5.99414 29.352 6.76113C29.5775 7.34121 29.8482 8.21777 29.9191 9.82266C29.9965 11.5629 30.0158 12.085 30.0158 16.4871C30.0158 20.8957 29.9965 21.4178 29.9191 23.1516C29.8482 24.7629 29.5775 25.633 29.352 26.2131C29.0555 26.9801 28.6945 27.5344 28.1209 28.108C27.5408 28.6881 26.993 29.0426 26.226 29.3391C25.6459 29.5647 24.7693 29.8354 23.1645 29.9062C21.4242 29.9836 20.9022 30.0029 16.5 30.0029C12.0914 30.0029 11.5693 29.9836 9.83555 29.9062C8.22422 29.8354 7.3541 29.5647 6.77402 29.3391C6.00703 29.0426 5.45273 28.6816 4.8791 28.108C4.29902 27.5279 3.94453 26.9801 3.64805 26.2131C3.42246 25.633 3.15176 24.7564 3.08086 23.1516C3.00352 21.4113 2.98418 20.8893 2.98418 16.4871C2.98418 12.0785 3.00352 11.5564 3.08086 9.82266C3.15176 8.21133 3.42246 7.34121 3.64805 6.76113C3.94453 5.99414 4.30547 5.43984 4.8791 4.86621C5.45918 4.28613 6.00703 3.93164 6.77402 3.63516C7.3541 3.40957 8.23067 3.13887 9.83555 3.06797C11.5693 2.99062 12.0914 2.97129 16.5 2.97129ZM16.5 0C12.0205 0 11.4598 0.0193359 9.7002 0.0966797C7.94707 0.174023 6.7418 0.457617 5.69766 0.863672C4.6084 1.28906 3.68672 1.8498 2.77148 2.77148C1.8498 3.68672 1.28906 4.6084 0.863672 5.69121C0.457617 6.7418 0.174023 7.94062 0.0966797 9.69375C0.0193359 11.4598 0 12.0205 0 16.5C0 20.9795 0.0193359 21.5402 0.0966797 23.2998C0.174023 25.0529 0.457617 26.2582 0.863672 27.3023C1.28906 28.3916 1.8498 29.3133 2.77148 30.2285C3.68672 31.1437 4.6084 31.7109 5.69121 32.1299C6.7418 32.5359 7.94063 32.8195 9.69375 32.8969C11.4533 32.9742 12.0141 32.9936 16.4936 32.9936C20.973 32.9936 21.5338 32.9742 23.2934 32.8969C25.0465 32.8195 26.2518 32.5359 27.2959 32.1299C28.3787 31.7109 29.3004 31.1437 30.2156 30.2285C31.1309 29.3133 31.698 28.3916 32.117 27.3088C32.523 26.2582 32.8066 25.0594 32.884 23.3063C32.9613 21.5467 32.9807 20.9859 32.9807 16.5064C32.9807 12.027 32.9613 11.4662 32.884 9.70664C32.8066 7.95352 32.523 6.74824 32.117 5.7041C31.7109 4.6084 31.1502 3.68672 30.2285 2.77148C29.3133 1.85625 28.3916 1.28906 27.3088 0.870117C26.2582 0.464062 25.0594 0.180469 23.3063 0.103125C21.5402 0.0193359 20.9795 0 16.5 0Z" fill="#000100"/>
<path d="M16.5 8.02441C11.8207 8.02441 8.02441 11.8207 8.02441 16.5C8.02441 21.1793 11.8207 24.9756 16.5 24.9756C21.1793 24.9756 24.9756 21.1793 24.9756 16.5C24.9756 11.8207 21.1793 8.02441 16.5 8.02441ZM16.5 21.9979C13.4643 21.9979 11.0021 19.5357 11.0021 16.5C11.0021 13.4643 13.4643 11.0021 16.5 11.0021C19.5357 11.0021 21.9979 13.4643 21.9979 16.5C21.9979 19.5357 19.5357 21.9979 16.5 21.9979Z" fill="#000100"/>
<path d="M27.2895 7.68965C27.2895 8.78536 26.4 9.66837 25.3107 9.66837C24.215 9.66837 23.332 8.77891 23.332 7.68965C23.332 6.59395 24.2215 5.71094 25.3107 5.71094C26.4 5.71094 27.2895 6.60039 27.2895 7.68965Z" fill="#000100"/>
</g>
<defs>
<clipPath id="clip0_184_656">
<rect width="33" height="33" fill="white"/>
</clipPath>
</defs>
</svg>
