<svg width="36" height="39" viewBox="0 0 36 39" fill="none" xmlns="http://www.w3.org/2000/svg">
<path fill-rule="evenodd" clip-rule="evenodd" d="M14.3029 0.983229C14.1648 0.933005 14.0116 0.946088 13.884 1.019L0.634743 8.59001C0.478956 8.67903 0.382812 8.8447 0.382812 9.02413V11.2347C0.382812 11.4449 0.514346 11.6327 0.711941 11.7046L21.6036 19.3015C21.7417 19.3517 21.8949 19.3387 22.0225 19.2657L35.3656 11.6411C35.5213 11.5521 35.6175 11.3865 35.6175 11.207V9.08418C35.6175 8.87393 35.486 8.68614 35.2884 8.61429L14.3029 0.983229ZM35.6175 14.6623C35.6175 14.2784 35.2027 14.0377 34.8694 14.2282L22.4113 21.3471C22.156 21.4929 21.8496 21.5191 21.5734 21.4187L1.05368 13.957C0.727592 13.8384 0.382812 14.0799 0.382812 14.4268V21.0221C0.382812 21.2323 0.514346 21.4201 0.711941 21.492L21.6036 29.0889C21.7417 29.1391 21.8949 29.1261 22.0225 29.0531L35.3656 21.4286C35.5213 21.3395 35.6175 21.1739 35.6175 20.9944V14.6623ZM0.711941 30.386C0.514346 30.3141 0.382812 30.1263 0.382812 29.9161V24.2143C0.382812 23.8673 0.727593 23.6258 1.05368 23.7444L21.5734 31.2061C21.8496 31.3065 22.156 31.2803 22.4113 31.1345L34.8694 24.0156C35.2027 23.8251 35.6175 24.0658 35.6175 24.4497V29.9761C35.6175 30.1555 35.5213 30.3212 35.3656 30.4102L22.1163 37.9812C21.9887 38.0542 21.8355 38.0672 21.6974 38.017L0.711941 30.386Z" fill="#8E0000"/>
</svg>
