<svg width="32" height="32" viewBox="0 0 32 32" fill="none" xmlns="http://www.w3.org/2000/svg">
<rect x="17.3333" y="18.6665" width="2.66667" height="2.66667" rx="1.33333" fill="white"/>
<rect x="9.33334" y="14.6665" width="2.66667" height="8" rx="1.33333" fill="white"/>
<rect x="14.6667" y="17.3335" width="2.66667" height="8" rx="1.33333" transform="rotate(90 14.6667 17.3335)" fill="white"/>
<rect x="21.3333" y="16" width="2.66667" height="2.66667" rx="1.33333" fill="white"/>
<path d="M18.6667 10.6665V10.6665C18.6667 10.1108 18.6667 9.83302 18.6206 9.58842C18.4607 8.73931 17.8993 8.02029 17.1144 7.65923C16.8882 7.55523 16.6187 7.48784 16.0796 7.35308L16 7.33317C15.3851 7.17944 15.0777 7.10258 14.8228 6.97717C14.0915 6.61737 13.5649 5.94292 13.3932 5.14622C13.3333 4.86851 13.3333 4.5516 13.3333 3.91777V2.6665" stroke="white" stroke-width="2.66667" stroke-linecap="round"/>
<path d="M4 18.6665C4 15.2548 4 13.5489 4.82659 12.3737C5.03939 12.0712 5.28763 11.8004 5.56495 11.5682C6.64218 10.6665 8.2059 10.6665 11.3333 10.6665H20.6667C23.7941 10.6665 25.3578 10.6665 26.435 11.5682C26.7124 11.8004 26.9606 12.0712 27.1734 12.3737C28 13.5489 28 15.2548 28 18.6665C28 22.0783 28 23.7841 27.1734 24.9593C26.9606 25.2618 26.7124 25.5326 26.435 25.7648C25.3578 26.6665 23.7941 26.6665 20.6667 26.6665H11.3333C8.2059 26.6665 6.64218 26.6665 5.56495 25.7648C5.28763 25.5326 5.03939 25.2618 4.82659 24.9593C4 23.7841 4 22.0783 4 18.6665Z" stroke="white" stroke-width="2.66667"/>
</svg>
