<svg width="24" height="24" viewBox="0 0 24 24" fill="none" xmlns="http://www.w3.org/2000/svg">
<path fill-rule="evenodd" clip-rule="evenodd" d="M9.93934 12.6463L7.6921 11.8972L7.69209 11.8972L7.69209 11.8972C5.33888 11.1128 4.16228 10.7206 4.16228 9.99985C4.16228 9.27909 5.33888 8.88689 7.6921 8.10249L16.2053 5.26476C17.8611 4.71283 18.689 4.43687 19.126 4.87388C19.563 5.3109 19.287 6.1388 18.7351 7.79459L15.8974 16.3078L15.8974 16.3078L15.8974 16.3078C15.113 18.661 14.7208 19.8376 14 19.8376C13.2792 19.8376 12.887 18.661 12.1026 16.3078L11.3536 14.0605L15.7071 9.70696C16.0976 9.31643 16.0976 8.68327 15.7071 8.29275C15.3166 7.90222 14.6834 7.90222 14.2929 8.29275L9.93934 12.6463Z" fill="#222222"/>
</svg>
