<svg width="33" height="33" viewBox="0 0 33 33" fill="none" xmlns="http://www.w3.org/2000/svg">
<g clip-path="url(#clip0_85_1908)">
<path d="M32.3427 8.505C32.1562 7.80294 31.7885 7.1622 31.2765 6.6469C30.7645 6.1316 30.1261 5.75981 29.4252 5.56875C26.8452 4.875 16.5327 4.875 16.5327 4.875C16.5327 4.875 6.22023 4.875 3.64023 5.56875C2.93938 5.75981 2.30101 6.1316 1.789 6.6469C1.27699 7.1622 0.9093 7.80294 0.72273 8.505C0.0327302 11.0962 0.0327301 16.5 0.0327301 16.5C0.0327301 16.5 0.0327302 21.9037 0.72273 24.495C0.9093 25.1971 1.27699 25.8378 1.789 26.3531C2.30101 26.8684 2.93938 27.2402 3.64023 27.4312C6.22023 28.125 16.5327 28.125 16.5327 28.125C16.5327 28.125 26.8452 28.125 29.4252 27.4312C30.1261 27.2402 30.7645 26.8684 31.2765 26.3531C31.7885 25.8378 32.1562 25.1971 32.3427 24.495C33.0327 21.9037 33.0327 16.5 33.0327 16.5C33.0327 16.5 33.0327 11.0962 32.3427 8.505Z" fill="#FF0302"/>
<path d="M13.1578 21.4065V11.5928L21.7827 16.4996L13.1578 21.4065Z" fill="#FEFEFE"/>
</g>
<defs>
<clipPath id="clip0_85_1908">
<rect width="33" height="33" fill="white"/>
</clipPath>
</defs>
</svg>
