<svg width="316" height="68" viewBox="0 0 316 68" fill="none" xmlns="http://www.w3.org/2000/svg">
<path d="M92.8097 23.3627V30.56H104.417V37.2505H92.8097V45.0561H105.937V52H84.1425V16.4187H105.937V23.3627H92.8097ZM136.216 30.6107V37.808H113.914V30.6107H136.216ZM182.767 23.4133C186.281 23.4133 189.069 24.4777 191.13 26.6065C193.225 28.7353 194.273 31.692 194.273 35.4765V52H185.656V36.6423C185.656 34.8176 185.166 33.4153 184.186 32.4354C183.24 31.4217 181.922 30.9148 180.233 30.9148C178.543 30.9148 177.209 31.4217 176.229 32.4354C175.282 33.4153 174.809 34.8176 174.809 36.6423V52H166.193V36.6423C166.193 34.8176 165.703 33.4153 164.723 32.4354C163.777 31.4217 162.459 30.9148 160.769 30.9148C159.08 30.9148 157.745 31.4217 156.765 32.4354C155.819 33.4153 155.346 34.8176 155.346 36.6423V52H146.679V23.7175H155.346V27.2654C156.225 26.0828 157.374 25.1535 158.793 24.4777C160.212 23.7681 161.817 23.4133 163.608 23.4133C165.737 23.4133 167.629 23.8695 169.285 24.7819C170.974 25.6942 172.292 26.9951 173.238 28.6846C174.218 27.1303 175.553 25.8631 177.242 24.8832C178.932 23.9033 180.773 23.4133 182.767 23.4133ZM207.898 52.4055C205.431 52.4055 203.235 51.9831 201.309 51.1383C199.383 50.2936 197.862 49.1447 196.747 47.6917C195.632 46.205 195.007 44.5492 194.872 42.7245H203.437C203.539 43.7045 203.995 44.4985 204.806 45.1068C205.617 45.715 206.614 46.0191 207.796 46.0191C208.878 46.0191 209.706 45.8164 210.28 45.4109C210.888 44.9716 211.192 44.4141 211.192 43.7383C211.192 42.9273 210.77 42.336 209.925 41.9643C209.08 41.5588 207.712 41.1195 205.82 40.6464C203.792 40.1734 202.103 39.6834 200.751 39.1766C199.399 38.6359 198.234 37.808 197.254 36.693C196.274 35.5441 195.784 34.0066 195.784 32.0806C195.784 30.4586 196.223 28.9888 197.102 27.6709C198.014 26.3193 199.332 25.2549 201.055 24.4777C202.812 23.7006 204.89 23.312 207.29 23.312C210.838 23.312 213.625 24.1905 215.653 25.9476C217.714 27.7047 218.897 30.0363 219.201 32.9422H211.192C211.057 31.9623 210.618 31.1851 209.874 30.6107C209.165 30.0363 208.219 29.749 207.036 29.749C206.022 29.749 205.245 29.9518 204.705 30.3573C204.164 30.729 203.894 31.2527 203.894 31.9285C203.894 32.7395 204.316 33.3477 205.161 33.7532C206.039 34.1587 207.391 34.5642 209.216 34.9696C211.311 35.5103 213.017 36.0509 214.335 36.5916C215.653 37.0984 216.802 37.9432 217.781 39.1259C218.795 40.2747 219.319 41.8291 219.353 43.7889C219.353 45.4447 218.88 46.9314 217.933 48.2493C217.021 49.5333 215.686 50.547 213.929 51.2904C212.206 52.0338 210.195 52.4055 207.898 52.4055ZM218.99 37.808C218.99 34.9021 219.53 32.3509 220.612 30.1545C221.727 27.9581 223.23 26.2686 225.123 25.086C227.015 23.9033 229.127 23.312 231.458 23.312C233.452 23.312 235.192 23.7175 236.679 24.5284C238.2 25.3394 239.365 26.4038 240.176 27.7216V23.7175H248.844V52H240.176V47.9958C239.332 49.3137 238.149 50.3781 236.628 51.189C235.142 52 233.401 52.4055 231.408 52.4055C229.11 52.4055 227.015 51.8142 225.123 50.6315C223.23 49.415 221.727 47.7086 220.612 45.5122C219.53 43.2821 218.99 40.714 218.99 37.808ZM240.176 37.8587C240.176 35.6961 239.568 33.9897 238.352 32.7395C237.169 31.4892 235.716 30.8641 233.993 30.8641C232.269 30.8641 230.799 31.4892 229.583 32.7395C228.4 33.9559 227.809 35.6455 227.809 37.808C227.809 39.9706 228.4 41.6939 229.583 42.978C230.799 44.2282 232.269 44.8533 233.993 44.8533C235.716 44.8533 237.169 44.2282 238.352 42.978C239.568 41.7277 240.176 40.0213 240.176 37.8587ZM277.832 37.4026C277.832 38.2135 277.782 39.0583 277.68 39.9368H258.065C258.2 41.6939 258.758 43.0455 259.738 43.9917C260.751 44.904 261.985 45.3602 263.438 45.3602C265.6 45.3602 267.104 44.4479 267.949 42.6232H277.173C276.7 44.4816 275.839 46.1543 274.588 47.641C273.372 49.1278 271.835 50.2936 269.976 51.1383C268.118 51.9831 266.039 52.4055 263.742 52.4055C260.971 52.4055 258.504 51.8142 256.342 50.6315C254.179 49.4488 252.49 47.7593 251.273 45.5629C250.057 43.3666 249.448 40.7985 249.448 37.8587C249.448 34.919 250.04 32.3509 251.222 30.1545C252.439 27.9581 254.128 26.2686 256.291 25.086C258.454 23.9033 260.937 23.312 263.742 23.312C266.479 23.312 268.912 23.8864 271.04 25.0353C273.169 26.1842 274.825 27.823 276.008 29.9518C277.224 32.0806 277.832 34.5642 277.832 37.4026ZM268.962 35.1217C268.962 33.6349 268.455 32.4523 267.442 31.5737C266.428 30.6952 265.161 30.2559 263.64 30.2559C262.187 30.2559 260.954 30.6783 259.94 31.523C258.96 32.3678 258.352 33.5673 258.116 35.1217H268.962ZM276.739 37.8587C276.739 34.919 277.331 32.3509 278.513 30.1545C279.73 27.9581 281.402 26.2686 283.531 25.086C285.694 23.9033 288.16 23.312 290.931 23.312C294.479 23.312 297.436 24.2412 299.801 26.0997C302.2 27.9581 303.771 30.5769 304.515 33.9559H295.29C294.513 31.7934 293.009 30.7121 290.779 30.7121C289.191 30.7121 287.924 31.3372 286.978 32.5874C286.032 33.8039 285.558 35.561 285.558 37.8587C285.558 40.1565 286.032 41.9305 286.978 43.1807C287.924 44.3972 289.191 45.0054 290.779 45.0054C293.009 45.0054 294.513 43.9241 295.29 41.7615H304.515C303.771 45.073 302.2 47.6748 299.801 49.5671C297.402 51.4594 294.445 52.4055 290.931 52.4055C288.16 52.4055 285.694 51.8142 283.531 50.6315C281.402 49.4488 279.73 47.7593 278.513 45.5629C277.331 43.3666 276.739 40.7985 276.739 37.8587Z" fill="#2E3C7E"/>
<path d="M33.7906 17.6074C37.0795 15.4223 41.5455 14.0791 46.462 14.0791C51.3813 14.0791 55.8445 15.4223 59.1334 17.6074V54.2136C55.8445 52.0285 51.3813 50.6853 46.462 50.6853C41.5455 50.6853 37.0795 52.0285 33.7906 54.2136M33.7906 17.6074V54.2136V17.6074ZM33.7906 17.6074C30.5017 15.4223 26.0357 14.0791 21.1192 14.0791C16.2027 14.0791 11.7367 15.4223 8.44781 17.6074V54.2136C11.7367 52.0285 16.2027 50.6853 21.1192 50.6853C26.0357 50.6853 30.5017 52.0285 33.7906 54.2136V17.6074Z" stroke="#2E3C7E" stroke-width="5.63173" stroke-linecap="round" stroke-linejoin="round"/>
</svg>
