<svg width="506" height="501" viewBox="0 0 506 501" fill="none" xmlns="http://www.w3.org/2000/svg">
<path d="M489.501 452.133C487.247 450.868 484.426 449.848 481.433 449.168C474.672 447.638 467.135 447.525 459.787 447.43C396.117 446.656 332.883 446.372 269.194 446.372C219.046 445.976 168.917 445.56 118.769 445.315C95.1909 445.201 71.5561 445.107 48.0539 446.202C38.3197 446.656 28.1879 447.392 20.1392 450.396C12.0905 453.399 6.97723 459.33 11.0678 464.128C17.8666 472.061 40.649 471.607 53.811 471.626C155.3 471.777 256.809 471.475 358.298 471.154C392.273 471.041 426.248 470.946 460.166 469.964C467.76 469.737 475.6 469.454 482.418 467.622C489.255 465.809 494.917 462.069 494.501 457.97C494.292 455.741 492.342 453.739 489.501 452.133Z" fill="#D9E0FC"/>
<path d="M492.929 276.433C491.205 276.81 489.236 277.018 487.02 277.018C410.851 277.018 334.701 277.018 258.532 276.999C220.447 276.999 182.363 276.999 144.297 276.98C126.571 276.98 55.4774 286.765 47.7696 269.293C46.1409 265.609 46.141 261.548 46.141 257.582C46.141 182.802 46.3492 108.023 46.3492 33.2431C46.3492 30.5987 46.3492 27.9354 46.3492 25.291C46.3492 19.7001 51.3489 15.1668 57.5038 15.1668C140.794 15.1668 224.064 15.1668 307.354 15.1668C350.4 15.1668 393.447 15.1668 436.512 15.1668C454.636 15.1668 504.254 6.74256 504.254 30.4098C504.254 75.3834 504.235 120.376 504.235 165.349C504.235 188.355 504.235 211.381 504.235 234.387C504.216 249.025 510.958 272.447 492.929 276.433Z" fill="#D9E0FC"/>
<path d="M467.229 261.228C460.279 265.987 447.42 263.286 436.72 263.286C415.642 263.286 394.583 263.286 373.505 263.286C316.482 263.286 259.479 263.286 202.456 263.286C144.998 263.286 87.5585 263.286 30.1003 263.286C28.1686 263.286 26.6157 261.738 26.6157 259.811C26.5967 215.253 26.3316 170.676 26.2369 126.118C26.1801 103.83 26.1801 81.5601 26.2748 59.2717C26.3316 44.6898 20.3661 12.6549 30.195 1.24626C32.96 -1.9459 68.6394 2.00179 73.0898 2.00179C92.2362 1.96401 111.383 1.92624 130.51 1.88846C167.667 1.81291 204.823 1.73737 241.98 1.64293C291.901 1.64293 341.84 1.43513 391.761 1.3218C418.028 1.26514 466.889 1.41626 470.582 1.45403C475.335 1.5107 473.29 75.2891 473.328 80.7479C473.574 111.177 473.422 141.626 473.138 172.055C472.93 194.778 472.608 217.501 472.362 240.242C472.324 243.265 472.286 246.287 472.286 249.309C472.305 255.41 470.354 259.074 467.229 261.228Z" fill="#002979"/>
<path d="M458.044 238.637C444.371 238.278 430.66 238.543 416.987 238.543C403.294 238.543 389.602 238.561 375.929 238.561C348.544 238.58 321.179 238.599 293.794 238.618C239.328 238.656 184.844 238.675 130.378 238.826C115.019 238.864 99.641 238.901 84.2822 238.958C68.9423 238.996 53.4888 238.807 38.1868 239.884C37.2967 239.94 37.2967 241.187 38.1868 241.263C51.8412 242.226 65.5714 242.056 79.2447 242.169C92.937 242.282 106.629 242.245 120.302 242.282C147.687 242.358 175.053 242.377 202.437 242.415C256.903 242.49 311.388 242.528 365.854 242.566C381.213 242.585 396.59 242.585 411.949 242.604C427.308 242.622 442.686 242.925 458.044 242.528C460.563 242.471 460.582 238.694 458.044 238.637Z" fill="black"/>
<path d="M442.307 236.559C441.853 235.161 441.057 233.934 439.959 232.914C438.539 231.516 436.872 230.534 434.94 230.005C434.599 229.892 434.259 229.778 433.937 229.665C432.44 229.193 430.944 229.136 429.467 229.457C427.971 229.533 426.589 229.967 425.301 230.779C424.543 231.365 423.786 231.95 423.028 232.536C421.93 233.556 421.153 234.746 420.718 236.144C420.206 237.012 419.96 237.957 419.96 238.977C419.619 240.469 419.695 241.942 420.169 243.435C420.547 244.322 420.926 245.21 421.305 246.117C422.309 247.798 423.653 249.139 425.339 250.14C425.642 250.348 425.926 250.556 426.229 250.763C428.009 251.783 429.922 252.312 431.967 252.312C432.971 252.18 433.974 252.048 434.997 251.916C436.929 251.368 438.595 250.404 440.016 249.007C441.133 247.987 441.91 246.759 442.364 245.361C443.084 244.001 443.406 242.547 443.349 240.998C443.349 239.374 443.027 237.919 442.307 236.559Z" fill="black"/>
<path d="M384.508 335.459L73.4119 330.869L74.6428 9.78381L383.599 12.1638L384.508 335.459Z" fill="white" stroke="black" stroke-width="0.5" stroke-miterlimit="10"/>
<path d="M143.16 263.098C142.232 274.922 141.304 286.727 140.377 298.551C140.244 300.157 139.108 301.517 137.403 301.517C131.949 301.536 126.514 301.555 121.06 301.592C116.174 301.611 111.288 301.63 106.402 301.649C105.114 301.649 103.769 301.668 102.614 300.988C101.345 300.232 100.739 298.929 100.569 297.531C100.322 295.246 100.588 292.828 100.644 290.524C100.834 280.777 101.194 271.031 102.273 261.322C102.462 259.566 104.432 259.169 105.341 260.189C106.932 259.698 108.845 259.924 110.416 259.924C112.386 259.924 114.337 259.943 116.306 259.943C124.222 259.981 132.157 260.019 140.074 260.019C141.645 260.019 143.293 261.435 143.16 263.098ZM134.638 295.605C135.358 285.802 136.059 275.998 136.778 266.195C132.138 266.214 127.48 266.252 122.84 266.271C119.961 266.29 117.083 266.309 114.223 266.328C112.746 266.346 111.288 266.346 109.81 266.346C109.28 266.346 108.75 266.346 108.22 266.346C107.652 266.819 106.932 267.102 106.174 267.14C106.326 270.294 106.42 273.467 106.477 276.641C106.553 281.193 106.477 285.745 106.421 290.297C106.402 291.487 106.383 292.677 106.364 293.867C106.345 294.49 106.383 295.151 106.383 295.813C106.629 295.831 106.856 295.85 107.046 295.85L110.189 295.831C118.333 295.756 126.476 295.68 134.638 295.605Z" fill="black"/>
<path d="M143.16 194.155C142.232 205.979 141.304 217.784 140.377 229.608C140.244 231.214 139.108 232.574 137.403 232.574C131.949 232.593 126.514 232.612 121.06 232.649C116.174 232.668 111.288 232.687 106.402 232.706C105.114 232.706 103.769 232.725 102.614 232.045C101.345 231.289 100.739 229.986 100.569 228.588C100.322 226.303 100.588 223.885 100.644 221.581C100.834 211.834 101.194 202.088 102.273 192.379C102.462 190.622 104.432 190.226 105.341 191.246C106.932 190.755 108.845 190.981 110.416 190.981C112.386 190.981 114.337 191 116.306 191C124.222 191.038 132.157 191.076 140.074 191.076C141.645 191.076 143.293 192.492 143.16 194.155ZM134.638 226.662C135.358 216.859 136.059 207.055 136.778 197.252C132.138 197.271 127.48 197.309 122.84 197.328C119.961 197.347 117.083 197.366 114.223 197.385C112.746 197.385 111.288 197.403 109.81 197.403C109.28 197.403 108.75 197.403 108.22 197.403C107.652 197.876 106.932 198.159 106.174 198.197C106.326 201.351 106.42 204.524 106.477 207.698C106.553 212.25 106.477 216.802 106.421 221.354C106.402 222.544 106.383 223.734 106.364 224.924C106.345 225.547 106.383 226.208 106.383 226.87C106.629 226.888 106.856 226.907 107.046 226.907L110.189 226.888C118.333 226.813 126.476 226.737 134.638 226.662Z" fill="black"/>
<path d="M143.16 125.212C142.232 137.036 141.304 148.841 140.377 160.665C140.244 162.271 139.108 163.631 137.403 163.631C131.949 163.65 126.514 163.668 121.06 163.706C116.174 163.725 111.288 163.744 106.402 163.763C105.114 163.763 103.769 163.782 102.614 163.102C101.345 162.346 100.739 161.043 100.569 159.645C100.322 157.36 100.588 154.942 100.644 152.638C100.834 142.891 101.194 133.145 102.273 123.436C102.462 121.679 104.432 121.283 105.341 122.303C106.932 121.812 108.845 122.038 110.416 122.038C112.386 122.038 114.337 122.057 116.306 122.057C124.222 122.095 132.157 122.133 140.074 122.133C141.645 122.133 143.293 123.549 143.16 125.212ZM134.638 157.719C135.358 147.915 136.059 138.112 136.778 128.309C132.138 128.328 127.48 128.366 122.84 128.385C119.961 128.404 117.083 128.423 114.223 128.441C112.746 128.441 111.288 128.46 109.81 128.46C109.28 128.46 108.75 128.46 108.22 128.46C107.652 128.933 106.932 129.216 106.174 129.254C106.326 132.408 106.42 135.581 106.477 138.755C106.553 143.307 106.477 147.859 106.421 152.411C106.402 153.601 106.383 154.791 106.364 155.981C106.345 156.604 106.383 157.265 106.383 157.926C106.629 157.945 106.856 157.964 107.046 157.964L110.189 157.945C118.333 157.87 126.476 157.794 134.638 157.719Z" fill="black"/>
<path d="M310.838 128.819C300.896 128.555 290.934 128.762 280.992 128.781C271.144 128.8 261.277 128.8 251.43 128.819C231.526 128.838 211.622 128.932 191.737 129.027C186.188 129.046 180.639 129.084 175.09 129.102C169.466 129.121 163.765 129.008 158.16 129.405C157.44 129.461 157.44 130.462 158.16 130.5C163.102 130.84 168.121 130.746 173.083 130.783C178.063 130.84 183.025 130.84 188.006 130.859C197.854 130.916 207.72 130.953 217.568 131.01C237.472 131.105 257.376 131.086 277.261 131.123C288.454 131.142 299.665 131.388 310.838 131.086C312.316 131.067 312.316 128.857 310.838 128.819Z" fill="#969696"/>
<path d="M241.393 139.567C219.898 139.321 198.403 139.113 176.909 139.113C170.773 139.113 164.618 139.057 158.482 139.151C157.308 139.17 157.308 140.964 158.482 140.983C179.958 141.323 201.471 141.002 222.966 140.87C229.102 140.832 235.257 140.643 241.393 140.568C242.037 140.568 242.037 139.586 241.393 139.567Z" fill="#969696"/>
<path d="M307.392 150.994C288.018 150.635 268.626 150.918 249.252 150.956C229.878 150.994 210.486 151.013 191.112 151.051C180.166 151.07 169.239 151.088 158.292 151.277C157.402 151.296 157.402 152.637 158.292 152.656C177.666 153.015 197.059 152.902 216.432 152.921C235.806 152.958 255.199 152.977 274.572 153.015C285.518 153.034 296.446 153.128 307.392 152.921C308.642 152.921 308.642 151.013 307.392 150.994Z" fill="#969696"/>
<path d="M257.206 197.46C250.653 197.026 244.006 197.385 237.434 197.404C230.844 197.423 224.253 197.441 217.663 197.46C204.482 197.498 191.32 197.536 178.139 197.574C170.678 197.593 163.254 197.687 155.792 197.951C155.262 197.97 155.262 198.764 155.792 198.783C168.954 199.217 182.135 199.16 195.316 199.198C208.497 199.236 221.659 199.274 234.84 199.311C238.476 199.33 242.093 199.33 245.729 199.349C249.536 199.368 253.38 199.519 257.187 199.255C258.38 199.198 258.38 197.536 257.206 197.46Z" fill="#969696"/>
<path d="M297.109 212.628C278.739 212.099 260.331 212.307 241.961 212.269C223.761 212.231 205.581 212.212 187.381 212.156L171.871 212.118C166.72 212.099 161.512 211.872 156.361 212.269C155.111 212.363 155.111 214.12 156.361 214.214C160.944 214.573 165.565 214.384 170.148 214.384C174.75 214.366 179.332 214.366 183.934 214.347C193.119 214.328 202.323 214.309 211.508 214.29C229.708 214.252 247.888 214.233 266.088 214.196C276.428 214.177 286.768 214.177 297.109 213.874C297.904 213.837 297.904 212.647 297.109 212.628Z" fill="#969696"/>
<path d="M302.486 270.672C283.302 270.2 264.118 270.426 244.934 270.445C225.749 270.445 206.565 270.464 187.381 270.521C176.643 270.559 165.886 270.691 155.148 270.559C153.898 270.54 153.898 272.504 155.148 272.504C174.332 272.277 193.517 272.599 212.701 272.617C231.885 272.617 251.07 272.636 270.254 272.636C280.992 272.636 291.73 272.655 302.486 272.391C303.585 272.372 303.585 270.71 302.486 270.672Z" fill="#969696"/>
<path d="M186.169 280.796C176.018 280.796 165.886 281.004 155.754 281.098C155.035 281.098 155.035 282.194 155.754 282.194C165.886 282.288 176.037 282.496 186.169 282.496C187.286 282.515 187.286 280.796 186.169 280.796Z" fill="#969696"/>
<path d="M288.756 282.062C277.526 281.325 266.201 281.646 254.952 281.703C243.589 281.76 232.226 281.835 220.863 281.892C214.462 281.93 208.061 281.967 201.679 282.289C200.959 282.326 200.959 283.365 201.679 283.384C212.928 283.951 224.215 283.8 235.484 283.856C246.846 283.913 258.209 283.988 269.572 283.988C275.973 283.988 282.374 284.026 288.756 283.611C289.76 283.554 289.779 282.137 288.756 282.062Z" fill="#969696"/>
<path d="M245.218 293.187C233.988 292.601 222.663 293.036 211.432 293.073C200.278 293.111 189.085 293.073 177.931 293.47C171.549 293.697 165.129 293.621 158.747 293.64C158.103 293.64 158.103 294.641 158.747 294.641C181.188 294.754 203.611 295.17 226.053 295.265C232.454 295.283 238.855 295.435 245.237 295.095C246.449 295.038 246.449 293.262 245.218 293.187Z" fill="#969696"/>
<path d="M359.434 51.8676C348.601 51.0176 337.465 51.6787 326.595 51.6787C316.33 51.6787 306.066 51.6976 295.821 51.6976C274.951 51.7165 254.1 51.7165 233.23 51.7353C212.36 51.7542 191.509 51.792 170.64 51.8865C149.543 51.9809 128.048 51.0932 107.027 52.9065C102.425 53.3031 102.406 59.5552 107.027 59.9707C128.048 61.784 149.543 60.8963 170.64 60.9907C191.509 61.0852 212.36 61.123 233.23 61.1418C254.1 61.1607 274.951 61.1607 295.821 61.1796C306.085 61.1796 316.349 61.1985 326.595 61.1985C337.465 61.1985 348.582 61.8596 359.434 61.0096C365.399 60.5185 365.418 52.3398 359.434 51.8676Z" fill="black"/>
<path d="M308.926 78.2168C305.46 75.4779 302.714 75.969 298.32 75.969C294.23 75.969 290.139 75.969 286.048 75.969L260.482 75.9879C243.097 76.0068 225.712 76.0068 208.326 76.0257L157.194 76.0635C148.331 76.0635 139.468 76.1579 130.605 76.2713C123.257 76.3657 113.409 74.949 106.742 78.2923C104.981 79.1801 104.981 81.9945 106.742 82.8822C113.428 86.2444 123.238 84.8088 130.605 84.9033C139.127 85.0166 147.649 85.0922 156.171 85.1111C173.556 85.1299 190.941 85.13 208.326 85.1488L259.459 85.1866C268.322 85.1866 277.185 85.2055 286.048 85.2055C290.139 85.2055 294.23 85.2055 298.32 85.2055C302.6 85.2055 305.498 85.6588 308.926 82.9578C310.27 81.9189 310.251 79.2745 308.926 78.2168Z" fill="black"/>
<path d="M229.916 222.922C226.943 222.09 224.576 218.785 223.364 216.046C222.076 213.118 222.322 209.284 224.784 207.244C226.356 205.941 228.534 205.601 230.579 205.809C236.923 206.507 241.809 212.193 243.552 218.332C245.294 224.452 244.555 230.987 243.817 237.315C243.268 241.942 242.718 246.57 242.169 251.198C241.109 260.189 242.302 269.595 242.302 278.662C242.302 279.795 242.34 280.966 242.889 281.948C243.911 283.761 246.222 284.271 248.286 284.593C258.191 286.179 268.38 288.087 278.455 287.728C286.541 287.445 291.162 285.046 298.529 290.75C302.563 293.867 305.65 298.721 305.138 303.783C304.854 306.503 303.566 309.053 301.824 311.188C294.95 319.555 282.678 320.688 271.826 320.424C259.024 320.103 246.241 318.743 233.647 316.363C220.864 313.926 211.944 307.542 210.865 294.037C209.842 281.249 213.838 268.481 217.322 256.335C220.561 245.04 226.886 234.632 229.784 223.432C229.841 223.224 229.878 223.073 229.916 222.922Z" fill="#FBC2AA"/>
<path d="M301.692 297.285C301.597 296.719 301.503 296.152 301.408 295.604C300.594 289.994 299.817 282.987 305.934 281.23C309.968 280.059 317.032 280.588 319.721 276.848C320.592 275.639 320.838 274.128 321.047 272.674C321.369 270.596 321.672 268.499 321.994 266.421C310.271 268.424 305.385 257.959 303.908 248.175C302.393 238.183 302.715 225.717 311.54 219.03C317.165 214.761 325.043 213.741 331.652 216.235C338.262 218.728 343.432 224.583 345.306 231.383C346.689 236.408 345.041 238.24 344.757 243.434C344.416 249.308 344.947 259.452 344.625 265.326C344.397 269.274 344.738 273.882 346.897 277.32C347.882 278.888 349.075 280.229 350.742 281.079C351.954 281.702 355.098 281.362 355.855 282.193C360.154 286.897 364.169 291.883 368.828 296.209C357.825 300.817 346.329 304.104 334.569 306.106C326.331 307.523 309.665 312.377 303.984 303.632C302.734 301.705 302.109 299.514 301.692 297.285Z" fill="#FBC2AA"/>
<path d="M399.147 324.957C397.973 310.47 391.458 295.623 378.22 288.37C373.353 285.707 367.994 284.101 362.615 282.836C359.85 282.175 357.047 281.608 354.283 280.985C351.177 280.286 350.552 281.022 348.431 283.346C344.056 288.181 337.144 290.334 330.648 289.654C326.538 289.239 322.58 287.747 319.058 285.631C315.232 283.327 313.888 280.494 309.039 280.758C294.362 281.589 279.704 282.911 265.103 284.725C266.182 297.418 267.035 315.399 269.686 327.847C277.413 327.073 294.495 325.373 294.476 327.715C294.457 331.285 294.533 334.873 294.646 338.443C294.893 345.413 295.328 352.383 295.612 359.353C295.915 366.757 296.465 374.162 297.127 381.528C297.885 389.933 299.173 398.188 301.048 406.348C320.137 412.694 341.916 411.145 362.388 409.294C368.221 408.765 374.281 408.18 379.338 405.214C393.541 396.866 394.147 372.159 396.174 357.785C397.745 346.717 400.056 336.309 399.147 324.957Z" fill="#002979"/>
<path d="M252.699 469.322C252.945 468.963 253.21 468.604 253.475 468.264C258.418 461.936 266.959 457.819 273.947 454.098C281.655 449.999 290.272 446.618 299.154 447.128C307.165 447.581 318.281 453.002 319.948 461.464C320.137 462.427 320.213 463.447 319.834 464.335C318.887 466.564 315.876 466.753 313.452 466.772C303.112 466.866 293.17 470.039 283.511 473.458C278.549 475.215 273.606 477.085 268.569 478.69C264.081 480.126 253.172 486.416 250.029 479.88C248.305 476.31 250.71 472.23 252.699 469.322Z" fill="black"/>
<path d="M207.873 384.361C212.058 379.752 218.004 376.768 224.103 375.616C232.663 374.01 241.507 375.559 249.915 377.883C267.717 382.775 284.401 391.01 302.279 395.6C310.214 397.64 315.384 396.884 323.13 396.261C332.959 395.468 343.053 396.431 352.938 395.845C362.18 395.298 372.179 394.58 380.834 397.13C381.97 396.374 383.107 395.638 384.243 394.882C393.902 388.555 403.541 382.265 415.661 384.569C425.187 386.382 434.391 391.199 440.281 399.019C446.549 407.33 444.675 418.191 439.05 426.483C434.391 433.339 427.517 438.401 420.396 442.651C395.833 457.346 368.998 466.356 340.004 464.354C336.121 464.09 331.557 464.033 328.754 467.15C327.713 468.321 327.088 474.724 324.759 474.44C321.88 474.1 316.35 473.307 313.642 472.325C298.984 467.055 284.345 461.766 269.686 456.496C256.809 451.85 243.855 447.184 232.132 440.139C221.981 434.057 212.796 425.822 207.418 415.15C203.536 407.462 200.354 397.338 204.407 389.348C205.354 387.516 206.509 385.853 207.873 384.361Z" fill="black"/>
<path d="M389.697 406.461C381.459 410.56 372.842 413.185 364.945 418.059C357.067 422.913 349.605 428.58 341.026 432.263C335.478 434.643 327.41 435.568 322.088 438.213" stroke="black" stroke-width="0.5" stroke-miterlimit="10"/>
<path d="M328.944 466.035C328.963 466.016 328.963 465.978 328.982 465.96C329.758 464.184 330.516 462.409 331.292 460.633C332.826 457.101 334.36 453.588 335.875 450.056C336.045 449.659 349.207 456.327 350.344 457.252C350.855 457.668 351.347 458.121 351.669 458.688C352.124 459.462 352.219 460.387 352.332 461.275C352.635 463.769 353.014 466.318 352.541 468.793C352.067 471.267 350.533 473.704 348.147 474.497C346.329 475.102 344.359 474.667 342.503 474.252C338.962 473.439 335.496 472.684 332.012 471.664C331.008 471.362 328.376 471.267 327.656 470.549C326.747 469.662 328.546 466.98 328.944 466.035Z" fill="#FBC2AA"/>
<path d="M343.602 452.757C344.568 452.889 345.572 452.926 346.613 452.832C348.735 452.662 350.818 452.058 352.939 452.095C357.162 452.171 358.999 455.458 360.76 458.782C363.866 464.656 369.472 468.944 374.017 473.666C379.717 479.578 383.013 485.15 382.085 493.612C381.763 496.597 380.551 500.015 377.653 500.828C374.983 501.583 372.35 499.713 370.21 497.957C364.396 493.197 358.563 488.456 352.749 483.696C350.098 481.524 347.39 478.634 344.379 477.009C342.466 475.989 340.288 475.234 338.3 474.233C340.44 467.168 342.239 460.01 343.602 452.757Z" fill="black"/>
<path d="M313.888 410.314C312.827 409.785 312.013 408.822 311.388 407.028C310.327 404.006 310.952 400.436 312.657 397.772C314.854 394.335 318.887 391.69 322.883 390.859C326.993 389.99 330.97 388.536 335.155 387.686C338.166 387.081 341.121 386.25 344.075 385.419C353.109 382.888 362.843 380.962 371.422 377.184C371.952 376.957 372.482 376.693 372.785 376.202C373.183 375.541 373.013 374.71 372.823 373.954C369.945 362.413 367.312 350.816 364.907 339.161C364.093 335.195 363.297 331.19 363.335 327.148C363.411 319.801 366.365 312.529 371.441 307.202C374.547 303.934 378.845 301.309 383.315 301.819C386.989 302.253 390.152 304.784 392.235 307.863C394.318 310.942 395.435 314.512 396.553 318.025C400.302 329.906 404.658 341.938 406.344 354.291C406.779 357.521 406.76 360.789 406.741 364.038C406.684 373.387 406.438 383.323 401.287 391.124C384.319 416.736 344.965 413.582 318.584 411.127C316.615 410.994 315.1 410.919 313.888 410.314Z" fill="#FBC2AA"/>
<path d="M321.349 211.362C316.577 212.079 311.994 214.006 308.149 217.141C303.869 220.636 302.525 224.338 301.635 229.816C301.578 230.174 301.54 230.571 301.748 230.873C301.975 231.194 302.43 231.27 302.828 231.327C309.645 232.139 316.501 232.724 323.376 233.083C324.133 233.121 324.909 233.159 325.61 232.876C327.353 232.177 328.034 229.816 329.814 229.211C330.061 231.497 329.89 233.839 329.341 236.068C329.095 237.05 328.773 238.089 329.095 239.052C329.739 240.998 332.03 240.96 333.507 241.848C335.344 242.943 337.125 245.172 337.825 247.174C338.753 249.818 339.17 252.708 340.799 255.051C341.215 255.655 341.708 256.203 342.181 256.751C343.071 257.771 343.942 258.791 344.832 259.811C345.382 259.395 345.647 258.734 345.874 258.111C347.73 253.124 349.699 248.175 350.874 243C351.934 238.353 351.896 233.404 350.684 228.796C350.154 226.718 349.188 224.621 348.222 222.713C347.692 221.656 346.991 220.541 346.31 219.559C346.101 219.257 344.056 216.594 343.696 216.82C344.151 216.518 344.719 215.951 344.51 215.347C344.264 214.629 342.598 215.139 342.143 215.385C342.408 214.969 342.787 214.61 343.052 214.195C343.317 213.779 343.488 213.231 343.279 212.778C343.147 212.495 342.882 212.287 342.598 212.136C341.859 211.777 340.969 211.872 340.268 212.268C339.53 212.684 338.905 213.439 338.734 214.251C333.129 211.796 327.542 210.436 321.349 211.362Z" fill="black"/>
<path d="M247.775 392.219C264.27 399.661 277.545 412.581 292.544 422.667C306.559 432.074 322.088 438.987 337.522 445.862C336.708 447.619 336.386 449.375 335.591 451.132" stroke="black" stroke-width="0.5" stroke-miterlimit="10"/>
<path d="M318.225 251.821C317.24 255.032 313.301 256.977 310.157 255.825" stroke="#1C1C1B" stroke-width="0.5" stroke-miterlimit="10"/>
<path d="M334.871 250.876C340.95 252.387 344.738 246.003 342.882 241.829C340.307 236.03 332.163 236.993 330.667 243.094" fill="#FBC2AA"/>
<path d="M337.977 241.356C336.841 241.035 335.515 241.224 334.55 241.848C333.584 242.471 333.034 243.491 333.072 244.492" stroke="#1C1C1B" stroke-width="0.5" stroke-miterlimit="10"/>
<path d="M383.239 294.641C372.141 295.812 361.971 303.5 357.862 313.87C353.601 324.636 355.722 336.725 357.9 348.096C365.058 347.888 371.384 348.379 378.504 346.981C387.746 345.168 396.723 342.316 405.416 338.803C402.84 322.351 398.068 306.579 386.288 294.717C385.152 293.546 384.868 294.471 383.239 294.641Z" fill="#002979"/>
<path d="M258.115 188.242C248.911 192.265 240.579 197.46 232.681 203.655C228.856 206.658 225.239 210.039 221.83 213.496C220.012 215.347 218.288 217.312 216.584 219.257C216.224 218.18 215.864 217.123 215.505 216.065C214.349 212.627 213.043 209.284 211.603 205.96C210.259 202.805 208.782 199.707 207.191 196.666C205.524 193.474 203.914 189.205 200.506 187.6C198.157 186.485 196.055 187.883 195.733 190.339C195.26 193.965 198.138 197.327 199.767 200.387C201.377 203.428 202.873 206.507 204.236 209.662C205.486 212.514 206.641 215.517 207.683 218.501C208.819 221.731 209.615 225.112 210.808 228.305C211.982 231.44 216.073 232.215 217.985 229.23C220.466 225.339 223.951 221.807 227.114 218.445C230.352 215.007 233.742 211.758 237.208 208.547C244.196 202.068 251.638 195.986 259.346 190.377C260.653 189.432 259.574 187.6 258.115 188.242Z" fill="black"/>
<path d="M365.532 419.362H272.034C270.671 419.362 269.553 418.247 269.553 416.887C269.553 415.527 270.671 414.413 272.034 414.413H365.532C366.895 414.413 368.012 415.527 368.012 416.887C368.012 418.247 366.895 419.362 365.532 419.362Z" fill="black"/>
<path d="M351.669 415.999H269.837L252.85 374.143C252.3 372.783 253.304 371.29 254.781 371.29H332.125C332.977 371.29 333.734 371.8 334.056 372.594L351.669 415.999Z" fill="black"/>
<path d="M293.643 393.673C294.514 395.94 297.45 397.772 300.196 397.772C302.942 397.772 304.476 395.94 303.604 393.673C302.733 391.406 299.798 389.574 297.052 389.574C294.306 389.574 292.772 391.406 293.643 393.673Z" stroke="white" stroke-width="0.5" stroke-miterlimit="10"/>
<path d="M321.387 266.176C321.539 267.744 321.406 269.311 321.255 270.86C321.35 270.841 321.463 270.804 321.558 270.785C324.777 269.784 327.429 267.177 328.792 264.098C326.539 265.345 323.982 266.044 321.387 266.176Z" fill="black"/>
<path d="M230.068 223.167C226.526 220.749 222.947 218.312 220.087 215.139C219.5 214.497 218.951 213.779 218.8 212.929C218.648 212.079 219.084 211.078 219.917 210.851C220.845 210.606 221.697 211.38 222.417 212.041C225.125 214.554 228.704 216.159 232.397 216.499" fill="white"/>
<path d="M230.068 223.167C226.526 220.749 222.947 218.312 220.087 215.139C219.5 214.497 218.951 213.779 218.8 212.929C218.648 212.079 219.084 211.078 219.917 210.851C220.845 210.606 221.697 211.38 222.417 212.041C225.125 214.554 228.704 216.159 232.397 216.499" stroke="#1C1C1B" stroke-width="0.5" stroke-miterlimit="10"/>
<path d="M353.62 485.358C353.772 485.264 353.923 485.15 354.075 485.037C354.245 484.905 354.435 484.829 354.624 484.735C355.003 484.565 355.362 484.395 355.741 484.244C355.59 484.319 355.419 484.376 355.268 484.451C355.968 484.149 356.65 483.771 357.256 483.318C357.408 483.205 357.54 483.091 357.692 482.959C357.938 482.733 358.184 482.525 358.525 482.43C359.131 482.241 359.889 482.544 360.211 483.091C360.495 483.583 360.476 484.13 360.23 484.621C360.173 484.735 360.097 484.829 360.04 484.943C359.908 485.15 359.775 485.358 359.624 485.547C359.245 486.057 358.847 486.548 358.393 486.982C357.938 487.436 357.446 487.851 356.896 488.172C356.556 488.38 356.196 488.607 355.798 488.682C355.4 488.777 354.984 488.815 354.586 488.852C354.416 488.834 354.245 488.815 354.094 488.777C353.847 488.72 353.639 488.607 353.45 488.437C353.147 488.191 352.863 487.851 352.768 487.455C352.56 486.624 352.901 485.83 353.62 485.358Z" fill="#002979"/>
<path d="M349.094 480.164C349.189 479.843 349.359 479.56 349.586 479.314C350.003 478.842 350.439 478.37 350.855 477.878C351.045 477.671 351.253 477.538 351.518 477.463C351.764 477.331 352.029 477.274 352.313 477.293C352.598 477.274 352.863 477.35 353.109 477.463C353.355 477.538 353.582 477.69 353.772 477.878C353.885 478.011 353.98 478.162 354.094 478.294C354.283 478.615 354.378 478.955 354.378 479.314C354.359 479.503 354.321 479.673 354.302 479.862C354.207 480.202 354.037 480.504 353.772 480.768C353.298 481.203 352.825 481.618 352.332 482.034C352.162 482.223 351.954 482.355 351.707 482.431C351.48 482.544 351.234 482.601 350.969 482.601C350.704 482.619 350.457 482.563 350.23 482.431C349.984 482.355 349.776 482.223 349.605 482.034C349.511 481.902 349.397 481.769 349.302 481.637C349.132 481.335 349.037 481.014 349.037 480.655C349.037 480.504 349.056 480.334 349.094 480.164Z" fill="#002979"/>
<path d="M343.488 475.234C343.791 474.78 344.094 474.327 344.397 473.874C344.511 473.666 344.682 473.477 344.871 473.364C345.041 473.194 345.269 473.099 345.496 473.024C345.742 472.948 345.988 472.929 346.234 472.986C346.481 473.005 346.708 473.061 346.916 473.213C347.049 473.307 347.162 473.401 347.295 473.496C347.522 473.722 347.693 474.006 347.768 474.308C347.787 474.478 347.806 474.629 347.844 474.799C347.844 475.139 347.75 475.441 347.598 475.725C347.295 476.178 346.992 476.631 346.689 477.085C346.575 477.292 346.405 477.481 346.216 477.595C346.045 477.765 345.818 477.859 345.591 477.935C345.344 478.01 345.098 478.029 344.852 477.972C344.606 477.954 344.379 477.897 344.17 477.746C344.038 477.651 343.924 477.557 343.791 477.462C343.564 477.236 343.394 476.952 343.318 476.65C343.299 476.48 343.28 476.329 343.261 476.159C343.223 475.838 343.318 475.517 343.488 475.234Z" fill="#002979"/>
<path d="M277.602 470.871C277.716 470.474 278.019 470.059 278.379 469.87C278.777 469.662 279.25 469.567 279.686 469.7C279.818 469.756 279.951 469.813 280.083 469.87C280.33 470.021 280.538 470.229 280.689 470.474C280.973 470.852 281.277 471.23 281.561 471.607C281.712 471.796 281.883 471.966 282.034 472.136C282.11 472.212 282.186 472.287 282.242 472.363C282.375 472.495 282.507 472.646 282.602 472.816C282.697 472.967 282.773 473.175 282.829 473.345C282.962 473.761 283.076 474.176 283.208 474.592C283.36 475.102 283.151 475.649 282.735 475.971C282.337 476.273 281.731 476.348 281.276 476.065C280.973 475.876 280.689 475.687 280.386 475.498C280.311 475.442 280.235 475.404 280.159 475.347C279.856 475.139 279.61 474.913 279.421 474.592C279.307 474.422 279.212 474.252 279.099 474.082C278.701 473.421 278.209 472.816 277.754 472.193C277.527 471.834 277.508 471.248 277.602 470.871Z" fill="#002979"/>
<path d="M284.837 468.396C284.951 467.999 285.254 467.584 285.613 467.395C286.201 467.074 286.939 466.828 287.356 467.47C288.019 468.509 288.681 469.548 289.363 470.587C289.893 471.418 290.443 472.381 290.121 473.307C290.026 473.609 289.818 473.893 289.515 474.044C289.098 474.233 288.606 474.1 288.189 473.874C287.469 473.477 287.072 472.778 286.636 472.098C286.522 471.928 286.428 471.758 286.314 471.588C285.916 470.927 285.424 470.323 284.97 469.699C284.761 469.359 284.723 468.774 284.837 468.396Z" fill="#002979"/>
<path d="M270.955 473.704C271.031 473.458 271.182 473.232 271.372 473.062C271.751 472.703 272.262 472.457 272.792 472.476C273.304 472.495 273.872 472.665 274.213 473.062C274.97 473.968 275.728 474.856 276.466 475.763C276.656 475.952 276.807 476.16 276.883 476.405C277.015 476.651 277.072 476.896 277.053 477.18C277.072 477.463 276.997 477.708 276.883 477.954C276.807 478.2 276.656 478.426 276.466 478.596C276.087 478.955 275.576 479.201 275.046 479.182C274.535 479.163 273.966 478.993 273.626 478.596C272.868 477.69 272.11 476.802 271.372 475.895C271.182 475.706 271.031 475.498 270.955 475.253C270.823 475.007 270.766 474.762 270.785 474.478C270.766 474.195 270.823 473.95 270.955 473.704Z" fill="#002979"/>
<path d="M437.119 408.029C436.248 409.766 436.702 411.939 435.869 413.695C435.263 414.999 434.051 415.905 433.217 417.095C431.93 418.946 431.721 421.553 432.952 423.442C434.164 425.331 436.835 426.218 438.861 425.217C440.471 424.424 441.399 422.686 442.043 421.005C443.368 417.53 444.77 412.09 443.633 408.388C442.687 405.384 438.747 404.742 437.119 408.029Z" fill="black"/>
<path d="M204.956 395.09C206.414 393.919 208.573 393.635 210.259 394.504C211.925 395.373 212.967 397.356 212.607 399.189C212.418 400.19 211.85 401.134 211.812 402.154C211.755 403.457 212.55 404.647 212.967 405.894C213.592 407.745 213.327 409.936 212.02 411.372C210.713 412.826 208.346 413.298 206.717 412.24C204.994 411.107 204.559 408.822 204.237 406.782C203.668 403.117 201.415 397.923 204.956 395.09Z" fill="black"/>
<path d="M297.695 323.503C297.525 323.333 297.184 323.295 297.013 323.503C296.559 324.07 296.067 324.636 295.65 325.222C295.442 325.505 295.233 325.789 295.025 326.072C294.817 326.355 294.57 326.639 294.381 326.96C294.154 327.337 294.665 327.715 294.987 327.413C295.233 327.167 295.461 326.884 295.688 326.62C295.915 326.355 296.142 326.091 296.37 325.826C296.843 325.297 297.26 324.731 297.695 324.183C297.847 323.975 297.885 323.711 297.695 323.503Z" fill="black"/>
<path d="M368.676 347.737C367.236 347.755 365.835 348.039 364.49 348.53C364.074 345.678 363.657 342.844 363.221 339.992C362.767 336.989 362.218 333.986 361.801 330.964C361.782 330.812 361.517 330.85 361.536 331.001C361.877 334.08 362.085 337.159 362.445 340.238C362.805 343.26 363.203 346.282 363.619 349.304C363.657 349.55 363.998 349.72 364.206 349.644C365.627 349.059 367.104 348.756 368.657 348.719C369.32 348.7 369.32 347.737 368.676 347.737Z" fill="black"/>
<path d="M162.364 444.729C159.656 449.754 153.899 452.19 148.615 453.418C147.024 453.796 145.415 454.079 143.805 454.381C142.536 454.608 141.192 454.759 139.979 455.231C137.215 456.289 140.245 457.989 141.646 458.612C142.479 458.99 142.688 460.199 142.252 460.935C141.741 461.767 140.775 461.918 139.923 461.54C138.768 461.011 137.499 460.237 136.609 459.236L134.809 465.28H107.652L105.531 426.974L146.475 426.294L145.396 429.902C149.922 428.598 155.49 428.107 159.543 430.827C164.126 433.925 164.883 440.026 162.364 444.729ZM157.706 433.925C153.937 431.281 148.426 432.282 144.373 433.604C144.335 433.623 144.297 433.642 144.26 433.642L138.749 452.058C139.695 451.699 140.737 451.453 141.665 451.265C146.968 450.188 152.971 449.432 157.081 445.541C160.168 442.633 161.834 436.834 157.706 433.925Z" fill="black"/>
<path d="M138.616 435.776C137.764 438.76 136.912 441.726 136.173 444.729C136.021 445.334 136.912 445.56 137.101 444.975C138.067 442.028 138.919 439.044 139.771 436.078C139.979 435.36 138.824 435.058 138.616 435.776Z" fill="black"/>
<path d="M134.772 450.132C134.336 451.624 133.901 453.097 133.465 454.589C133.029 456.081 132.708 457.593 132.329 459.085C132.177 459.708 133.086 459.954 133.276 459.349C133.749 457.876 134.279 456.403 134.696 454.929L135.946 450.453C136.154 449.697 134.98 449.376 134.772 450.132Z" fill="black"/>
<path d="M133.2 445.844C133.049 445.806 132.84 445.882 132.802 446.07C132.689 446.713 132.594 447.355 132.48 447.978C132.461 448.148 132.518 448.337 132.708 448.375C132.859 448.413 133.068 448.337 133.105 448.148C133.219 447.506 133.314 446.864 133.427 446.24C133.446 446.07 133.371 445.882 133.2 445.844Z" fill="black"/>
<path d="M400.397 380.999C400.151 384.513 398.522 387.78 396.117 390.311C395.833 390.614 396.269 391.029 396.572 390.765C399.318 388.29 400.833 384.683 400.946 380.999C400.946 380.64 400.416 380.659 400.397 380.999Z" fill="black"/>
<path d="M222.284 303.84C220.826 303.179 219.368 302.499 217.909 301.857C217.606 301.724 217.322 302.178 217.644 302.31C219.102 302.99 220.561 303.632 222.019 304.293C222.322 304.425 222.606 303.972 222.284 303.84Z" fill="black"/>
<path d="M126.174 347.604C122.367 352.402 117.727 356.482 113.618 361.015C109.262 365.813 105.91 371.423 101.554 376.221C97.7664 380.414 93.2402 383.946 88.2784 386.647C84.7749 388.555 76.6126 393.145 72.4462 392.125C64.3785 390.123 70.4198 376.579 72.9575 372.122C75.9876 366.776 80.2487 362.149 84.7559 358.012C89.4715 353.705 94.5848 349.871 99.6602 346.018C105.361 341.673 111.042 337.348 116.742 333.004C118.125 331.965 119.47 330.869 120.89 329.868C122.064 329.037 123.352 328.357 124.791 328.187C127.272 327.923 129.526 329.547 130.719 331.625C133.844 337.084 129.507 343.411 126.174 347.604Z" fill="black"/>
<path d="M39.8535 356.274C41.0087 350.079 43.5275 344.223 44.9668 338.104C46.8795 329.982 46.8795 321.538 48.3756 313.341C49.8717 305.143 53.2428 296.738 60.0605 291.94C61.9543 290.618 64.1132 289.579 66.4047 289.409C70.5521 289.088 74.5102 291.657 76.8586 295.094C79.188 298.513 80.1538 302.688 80.7219 306.805C82.9755 322.993 79.794 339.898 71.7832 354.159C69.2833 358.617 66.329 362.81 64.1511 367.419C61.2535 373.52 59.7385 380.244 59.4355 386.987C59.3029 389.915 59.3597 392.975 58.0719 395.619C56.8409 398.188 52.3337 402.098 49.2279 400.455C46.4629 398.981 44.5502 390.311 43.5654 387.516C40.0997 377.543 37.8839 366.814 39.8535 356.274Z" fill="black"/>
<path d="M12.6967 356.161C12.1285 353.138 11.6551 349.663 13.6436 347.321C16.3896 344.072 21.9195 345.413 24.8928 348.454C28.3206 351.949 29.7409 356.954 30.1765 361.827C30.6121 366.7 30.2144 371.611 30.5932 376.466C31.1803 383.927 33.6043 391.086 35.1762 398.395C36.6155 405.044 33.8884 409.577 28.9456 403.004C25.5936 398.565 23.0748 393.428 21.0105 388.29C16.901 377.977 14.7609 367.003 12.6967 356.161Z" fill="black"/>
<path d="M105.38 351.533C103.884 354.253 102.198 356.803 100.191 359.164C98.1833 361.506 95.9675 363.678 93.6949 365.775C89.1308 369.968 84.2069 373.784 79.8701 378.223C77.7869 380.357 75.8362 382.624 74.1697 385.098C72.2191 387.988 70.7798 391.142 69.6814 394.448C68.3746 398.358 67.3899 402.381 66.3104 406.367C65.1742 410.522 64.0379 414.696 62.9016 418.852C61.6706 423.385 60.4396 427.899 59.4549 432.489C58.9814 434.718 58.5647 436.966 58.2238 439.233C58.0723 440.29 57.9587 441.367 57.8451 442.444C57.7882 443.029 57.7503 443.596 57.7125 444.181C57.6935 444.408 57.6936 444.635 57.6936 444.861C57.7504 444.332 57.8451 443.804 57.9019 443.312C58.0534 442.122 58.2239 440.932 58.4133 439.742C58.7352 437.721 59.1329 435.719 59.5685 433.736C60.4586 429.732 61.557 425.803 62.6554 421.855C64.909 413.752 67.049 405.611 69.4352 397.564C70.5146 393.938 71.8025 390.368 73.7721 387.1C75.3439 384.513 77.2377 382.151 79.302 379.941C83.5252 375.446 88.3733 371.612 93.0321 367.57C98.1075 363.15 103.41 358.276 106.402 352.138C106.724 351.439 105.759 350.853 105.38 351.533Z" fill="#1C1C1B"/>
<path d="M57.6367 445.787C57.6746 445.485 57.6747 445.164 57.6936 444.843C57.6368 445.164 57.6178 445.485 57.6367 445.787Z" fill="#1C1C1B"/>
<path d="M57.6558 446.354C57.6368 446.165 57.6368 445.976 57.6368 445.787C57.6179 445.976 57.58 446.165 57.5421 446.335C57.5042 446.429 57.6558 446.429 57.6558 446.354Z" fill="#1C1C1B"/>
<path d="M55.2315 364.585C55.7807 357.351 57.0685 350.155 59.5684 343.317C59.6441 343.109 59.3222 343.015 59.2465 343.223C54.6445 355.311 53.9627 368.325 54.1142 381.132C54.1899 387.724 54.474 394.316 54.5308 400.908C54.6065 407.746 54.3604 414.564 53.7733 421.364C53.1484 428.561 52.2393 435.72 51.2924 442.878C43.3952 426.2 36.1797 409.2 29.7786 391.898C27.9038 386.817 26.0857 381.698 24.3434 376.561C24.1162 375.9 23.0746 376.183 23.2829 376.844C29.4188 395.053 36.407 412.978 44.2474 430.525C46.4632 435.474 48.7357 440.385 51.103 445.277C51.3871 445.882 52.1636 445.485 52.2204 444.975C53.9816 431.205 55.6292 417.417 55.5346 403.515C55.4399 390.576 54.2467 377.581 55.2315 364.585Z" fill="#1C1C1B"/>
<path d="M29.2674 423.895C32.2975 437.816 34.3617 452.398 32.1838 466.413C37.0698 466.432 61.7084 466.564 69.6434 466.489C69.5487 465.261 69.454 464.052 69.3972 462.824C68.9427 454.136 69.5108 445.39 72.1054 437.042C72.7303 435.021 74.0371 428.447 74.8704 426.483L74.7188 423.895H29.2674Z" fill="#002979"/>
<path d="M76.6128 416.17L27.885 416.246C27.4683 416.246 27.0707 416.283 26.673 416.359V427.597C27.0707 427.673 27.4683 427.711 27.885 427.711L75.5901 427.616L76.6128 416.17Z" fill="#1A0400"/>
<path d="M67.7685 433.226C67.0867 434.02 66.5564 435.021 66.083 435.946C65.6095 436.872 65.2118 437.854 64.833 438.836C64.0755 440.857 63.621 442.897 63.4127 445.032C63.3369 445.919 64.8331 446.146 65.0035 445.239C65.3633 443.275 65.8367 441.292 66.4806 439.384C66.8026 438.44 67.1814 437.514 67.598 436.588C67.9957 435.682 68.507 434.794 68.8858 433.869C69.132 433.264 68.1851 432.735 67.7685 433.226Z" fill="#1C1C1B"/>
<path d="M64.3216 450.66C64.3405 450.018 63.3368 450.018 63.3178 450.66C63.2042 453.909 62.5793 457.12 62.674 460.388C62.7119 461.426 64.1511 461.37 64.2458 460.388C64.6056 457.139 64.208 453.909 64.3216 450.66Z" fill="#1C1C1B"/>
<path d="M61.159 463.637C57.788 463.089 54.3224 462.919 50.9325 463.335C49.7962 463.467 50.0045 465.035 51.1408 464.883C54.4171 464.449 57.7313 464.355 61.0076 464.732C61.6326 464.808 61.784 463.731 61.159 463.637Z" fill="#1C1C1B"/>
<path d="M457.722 321.501C454.314 323.012 450.034 325.826 449.522 329.849C449.371 331.039 447.515 331.568 447.231 330.152C446.795 327.998 445.829 326.034 444.239 324.485C442.591 322.861 440.375 322.162 438.595 320.707C438.046 320.254 438.349 319.215 439.031 319.083C442.515 318.403 446.265 316.495 447.818 313.246C447.647 312.661 447.515 312.038 447.458 311.395C447.382 310.526 448.178 309.809 448.973 309.676C449.863 309.544 450.602 310.111 450.886 310.923C451.643 313.133 452.723 315.079 454.067 316.892C455.204 317.874 456.491 318.724 457.704 319.555C458.328 320.008 458.556 321.142 457.722 321.501Z" fill="#D9E0FC"/>
<path d="M470.714 343.638C469.9 342.845 469.029 342.089 468.177 341.353C468.631 341.126 469.104 340.881 469.559 340.635C470.165 340.295 470.411 339.426 470.032 338.841C469.616 338.18 468.915 338.085 468.233 338.368C468.025 338.463 467.817 338.557 467.627 338.652C467.874 337.141 468.139 335.611 468.48 334.1C468.745 332.91 466.946 332.4 466.643 333.59C466.207 335.327 465.715 337.065 465.241 338.784C464.427 338.085 463.612 337.367 462.798 336.668C462.363 336.291 461.719 336.253 461.302 336.668C460.885 337.084 460.904 337.745 461.302 338.161C462.078 338.992 462.855 339.823 463.612 340.673C463.234 340.881 462.836 341.088 462.476 341.334C461.87 341.712 461.207 342.014 460.563 342.335C459.995 342.618 459.825 343.431 460.128 343.959C460.469 344.545 461.169 344.677 461.757 344.375C462.344 344.073 462.95 343.733 463.556 343.506C463.745 343.431 463.915 343.355 464.086 343.279C463.991 343.657 463.897 344.035 463.821 344.394C463.518 345.659 463.063 346.963 463.006 348.266C462.931 350.098 465.639 350.382 466.15 348.682C466.491 347.51 466.491 346.226 466.643 345.017C466.68 344.715 466.737 344.413 466.775 344.092C467.324 344.677 467.892 345.263 468.48 345.848C469.067 346.415 470.127 346.49 470.714 345.848C471.282 345.244 471.339 344.243 470.714 343.638Z" fill="#D9E0FC"/>
<path d="M42.9783 84.6577C40.4974 83.5622 38.6605 81.5978 37.6946 79.0856C37.3537 78.179 36.1228 78.1223 35.8008 79.0856C35.3842 80.3134 34.6645 81.4089 33.8501 82.3911C33.8123 82.4478 33.7744 82.5044 33.7365 82.5422C32.9979 83.1655 32.1457 83.6944 31.2177 83.9966C30.6117 84.1855 30.5738 85.0921 31.2177 85.2621C32.4866 85.6021 33.585 86.1121 34.5129 87.0565C35.403 87.9821 35.9712 89.1154 36.1795 90.362C36.3499 91.382 37.9029 90.9476 37.7514 89.9276C37.5809 88.8509 38.7172 88.0576 39.5316 87.6232C40.6489 87.0188 41.8421 86.5088 43.0162 85.9799C43.4897 85.7721 43.4896 84.8844 42.9783 84.6577Z" fill="#D9E0FC"/>
<path d="M30.2139 58.3841C30.801 58.6296 31.5585 59.1396 31.2934 59.7063C31.1419 60.0274 30.7631 60.1407 30.4222 60.2352C26.8618 61.104 20.2904 62.464 20.5176 67.4128C20.5555 68.4705 18.9647 68.6406 18.6995 67.6584C17.7715 64.0318 15.5558 60.7452 12.1848 59.0074C11.4273 58.6108 11.844 57.5719 12.5825 57.5152C14.4764 57.383 16.2754 56.6086 17.7147 55.3997C19.4381 53.9642 19.8736 53.152 20.3092 51.0365C20.4797 50.1865 20.9721 49.2987 21.8243 49.091C21.9759 49.0532 22.1653 49.0343 22.3168 49.1098C22.6198 49.2232 22.7523 49.582 22.847 49.8843C24.0211 53.2842 26.2937 56.4197 29.4753 58.063C29.7404 58.1574 29.9677 58.2708 30.2139 58.3841Z" fill="#D9E0FC"/>
<path d="M415.623 110.101C414.733 109.553 413.199 109.402 412.574 108.533C411.457 106.947 414.184 107.003 414.941 106.796C416.343 106.418 417.479 105.341 418.237 104.094C418.994 102.848 419.411 101.431 419.809 100.033C420.755 100.543 420.945 101.752 421.343 102.753C422.024 104.453 423.577 105.7 425.338 106.153C425.963 106.304 429.353 107.041 427.005 108.25C425.433 109.043 423.653 109.723 422.365 110.97C421.551 111.763 420.339 115.56 419.411 115.409C418.994 115.352 418.691 115.012 418.502 114.634C418.331 114.257 418.256 113.841 418.142 113.444C417.934 112.727 417.593 112.047 417.119 111.461C416.722 110.932 416.21 110.479 415.623 110.101Z" fill="#D9E0FC"/>
<path d="M17.071 117.826C13.1508 119.092 10.9729 122.907 10.0071 126.647C9.72301 127.705 7.99961 127.497 8.07536 126.382C8.18899 124.399 7.4504 122.51 6.18155 120.999C4.6665 119.186 2.8295 118.638 0.727369 117.694C0.424358 117.562 0.0645256 117.373 0.00771141 117.033C-0.0491028 116.712 0.21603 116.409 0.481165 116.22C1.37125 115.616 2.52651 115.673 3.58704 115.465C6.12474 114.993 8.26473 112.858 8.77606 110.346C8.88969 109.817 8.92759 109.251 9.15484 108.76C9.3821 108.268 9.89341 107.853 10.4426 107.928C11.1055 108.023 11.4463 108.741 11.6735 109.364C12.128 110.629 12.4311 111.819 13.397 112.783C14.5522 113.935 15.9535 114.842 17.355 115.635C18.2829 116.164 18.0179 117.524 17.071 117.826Z" fill="#D9E0FC"/>
</svg>
