<svg width="22" height="22" viewBox="0 0 22 22" fill="none" xmlns="http://www.w3.org/2000/svg">
<path d="M3.14385 0.159515C2.32611 0.159515 1.54186 0.484363 0.963626 1.06259C0.385394 1.64083 0.0605469 2.42508 0.0605469 3.24282V6.32613C0.0605469 7.14387 0.385394 7.92812 0.963626 8.50636C1.54186 9.08459 2.32611 9.40944 3.14385 9.40944H6.22716C7.0449 9.40944 7.82915 9.08459 8.40739 8.50636C8.98562 7.92812 9.31047 7.14387 9.31047 6.32613V3.24282C9.31047 2.42508 8.98562 1.64083 8.40739 1.06259C7.82915 0.484363 7.0449 0.159515 6.22716 0.159515H3.14385ZM3.14385 12.4927C2.32611 12.4927 1.54186 12.8176 0.963626 13.3958C0.385394 13.9741 0.0605469 14.7583 0.0605469 15.576V18.6594C0.0605469 19.4771 0.385394 20.2614 0.963626 20.8396C1.54186 21.4178 2.32611 21.7427 3.14385 21.7427H6.22716C7.0449 21.7427 7.82915 21.4178 8.40739 20.8396C8.98562 20.2614 9.31047 19.4771 9.31047 18.6594V15.576C9.31047 14.7583 8.98562 13.9741 8.40739 13.3958C7.82915 12.8176 7.0449 12.4927 6.22716 12.4927H3.14385ZM12.3938 3.24282C12.3938 2.42508 12.7186 1.64083 13.2969 1.06259C13.8751 0.484363 14.6593 0.159515 15.4771 0.159515H18.5604C19.3781 0.159515 20.1624 0.484363 20.7406 1.06259C21.3188 1.64083 21.6437 2.42508 21.6437 3.24282V6.32613C21.6437 7.14387 21.3188 7.92812 20.7406 8.50636C20.1624 9.08459 19.3781 9.40944 18.5604 9.40944H15.4771C14.6593 9.40944 13.8751 9.08459 13.2969 8.50636C12.7186 7.92812 12.3938 7.14387 12.3938 6.32613V3.24282ZM12.3938 15.576C12.3938 14.7583 12.7186 13.9741 13.2969 13.3958C13.8751 12.8176 14.6593 12.4927 15.4771 12.4927H18.5604C19.3781 12.4927 20.1624 12.8176 20.7406 13.3958C21.3188 13.9741 21.6437 14.7583 21.6437 15.576V18.6594C21.6437 19.4771 21.3188 20.2614 20.7406 20.8396C20.1624 21.4178 19.3781 21.7427 18.5604 21.7427H15.4771C14.6593 21.7427 13.8751 21.4178 13.2969 20.8396C12.7186 20.2614 12.3938 19.4771 12.3938 18.6594V15.576Z" fill="white"/>
</svg>
