<svg width="27" height="22" viewBox="0 0 27 22" fill="none" xmlns="http://www.w3.org/2000/svg">
<path d="M19.5954 20.7868H25.5249V18.415C25.5248 17.6756 25.2944 16.9546 24.8657 16.3523C24.437 15.7499 23.8312 15.2961 23.1326 15.0539C22.4341 14.8117 21.6774 14.7931 20.9678 15.0008C20.2582 15.2085 19.631 15.6321 19.1733 16.2128L19.5954 20.7868ZM19.5954 20.7868H7.73656H19.5954ZM19.5954 20.7868V18.415C19.5954 17.637 19.446 16.8935 19.1733 16.2128L19.5954 20.7868ZM7.73656 20.7868H1.80713V18.415C1.80718 17.6756 2.03759 16.9546 2.46632 16.3523C2.89505 15.7499 3.5008 15.2961 4.19936 15.0539C4.89792 14.8117 5.65459 14.7931 6.36418 15.0008C7.07377 15.2085 7.70102 15.6321 8.15874 16.2128L7.73656 20.7868ZM7.73656 20.7868V18.415C7.73656 17.637 7.88599 16.8935 8.15874 16.2128L7.73656 20.7868ZM8.15874 16.2128C8.59913 15.1122 9.35915 14.1689 10.3408 13.5044C11.3224 12.8399 12.4806 12.4847 13.666 12.4847C14.8514 12.4847 16.0096 12.8399 16.9912 13.5044C17.9729 14.1689 18.7329 15.1122 19.1733 16.2128H8.15874ZM17.2237 5.37022C17.2237 6.31377 16.8488 7.21868 16.1816 7.88587C15.5145 8.55306 14.6096 8.92788 13.666 8.92788C12.7224 8.92788 11.8175 8.55306 11.1504 7.88587C10.4832 7.21868 10.1083 6.31377 10.1083 5.37022C10.1083 4.42667 10.4832 3.52177 11.1504 2.85458C11.8175 2.18739 12.7224 1.81256 13.666 1.81256C14.6096 1.81256 15.5145 2.18739 16.1816 2.85458C16.8488 3.52177 17.2237 4.42667 17.2237 5.37022V5.37022ZM24.339 8.92788C24.339 9.55692 24.0891 10.1602 23.6443 10.605C23.1995 11.0498 22.5962 11.2997 21.9672 11.2997C21.3382 11.2997 20.7349 11.0498 20.2901 10.605C19.8453 10.1602 19.5954 9.55692 19.5954 8.92788C19.5954 8.29885 19.8453 7.69558 20.2901 7.25079C20.7349 6.80599 21.3382 6.55611 21.9672 6.55611C22.5962 6.55611 23.1995 6.80599 23.6443 7.25079C24.0891 7.69558 24.339 8.29885 24.339 8.92788ZM7.73656 8.92788C7.73656 9.55692 7.48668 10.1602 7.04189 10.605C6.59709 11.0498 5.99382 11.2997 5.36479 11.2997C4.73576 11.2997 4.13249 11.0498 3.68769 10.605C3.2429 10.1602 2.99302 9.55692 2.99302 8.92788C2.99302 8.29885 3.2429 7.69558 3.68769 7.25079C4.13249 6.80599 4.73576 6.55611 5.36479 6.55611C5.99382 6.55611 6.59709 6.80599 7.04189 7.25079C7.48668 7.69558 7.73656 8.29885 7.73656 8.92788Z" stroke="white" stroke-width="2.37177" stroke-linecap="round" stroke-linejoin="round"/>
</svg>
