<svg width="35" height="29" viewBox="0 0 35 29" fill="none" xmlns="http://www.w3.org/2000/svg">
<path d="M17.375 4.14054C19.3703 2.81487 22.0798 2 25.0625 2C28.047 2 30.7547 2.81487 32.75 4.14054V26.3489C30.7547 25.0232 28.047 24.2083 25.0625 24.2083C22.0798 24.2083 19.3703 25.0232 17.375 26.3489M17.375 4.14054V26.3489V4.14054ZM17.375 4.14054C15.3797 2.81487 12.6703 2 9.6875 2C6.70475 2 3.99533 2.81487 2 4.14054V26.3489C3.99533 25.0232 6.70475 24.2083 9.6875 24.2083C12.6703 24.2083 15.3797 25.0232 17.375 26.3489V4.14054Z" stroke="#FEFCFB" stroke-width="3.41667" stroke-linecap="round" stroke-linejoin="round"/>
</svg>
