<svg width="187" height="34" viewBox="0 0 187 34" fill="none" xmlns="http://www.w3.org/2000/svg">
<path d="M51.9105 10.6263V14.9927H58.9522V19.0517H51.9105V23.7872H59.8747V28H46.6522V6.4135H59.8747V10.6263H51.9105ZM78.244 15.0235V19.39H64.714V15.0235H78.244ZM106.486 10.657C108.618 10.657 110.309 11.3027 111.56 12.5942C112.831 13.8857 113.466 15.6795 113.466 17.9755V28H108.239V18.6827C108.239 17.5757 107.941 16.725 107.347 16.1305C106.773 15.5155 105.973 15.208 104.948 15.208C103.923 15.208 103.114 15.5155 102.519 16.1305C101.945 16.725 101.658 17.5757 101.658 18.6827V28H96.4307V18.6827C96.4307 17.5757 96.1334 16.725 95.5389 16.1305C94.9649 15.5155 94.1654 15.208 93.1404 15.208C92.1154 15.208 91.3057 15.5155 90.7112 16.1305C90.1372 16.725 89.8502 17.5757 89.8502 18.6827V28H84.5919V10.8415H89.8502V12.994C90.3832 12.2765 91.0802 11.7127 91.9412 11.3027C92.8022 10.8722 93.7759 10.657 94.8624 10.657C96.1539 10.657 97.3019 10.9337 98.3064 11.4872C99.3314 12.0407 100.131 12.83 100.705 13.855C101.299 12.912 102.109 12.1432 103.134 11.5487C104.159 10.9542 105.276 10.657 106.486 10.657ZM121.732 28.246C120.236 28.246 118.903 27.9897 117.735 27.4772C116.566 26.9647 115.644 26.2677 114.967 25.3862C114.291 24.4842 113.912 23.4797 113.83 22.3727H119.026C119.088 22.9672 119.365 23.449 119.857 23.818C120.349 24.187 120.953 24.3715 121.671 24.3715C122.327 24.3715 122.829 24.2485 123.178 24.0025C123.547 23.736 123.731 23.3977 123.731 22.9877C123.731 22.4957 123.475 22.137 122.962 21.9115C122.45 21.6655 121.62 21.399 120.472 21.112C119.242 20.825 118.217 20.5277 117.397 20.2202C116.577 19.8922 115.869 19.39 115.275 18.7135C114.68 18.0165 114.383 17.0837 114.383 15.9152C114.383 14.9312 114.65 14.0395 115.183 13.24C115.736 12.42 116.536 11.7742 117.581 11.3027C118.647 10.8312 119.908 10.5955 121.363 10.5955C123.516 10.5955 125.207 11.1285 126.437 12.1945C127.688 13.2605 128.405 14.675 128.59 16.438H123.731C123.649 15.8435 123.383 15.372 122.932 15.0235C122.501 14.675 121.927 14.5007 121.21 14.5007C120.595 14.5007 120.123 14.6237 119.795 14.8697C119.467 15.0952 119.303 15.413 119.303 15.823C119.303 16.315 119.559 16.684 120.072 16.93C120.605 17.176 121.425 17.422 122.532 17.668C123.803 17.996 124.838 18.324 125.638 18.652C126.437 18.9595 127.134 19.472 127.729 20.1895C128.344 20.8865 128.661 21.8295 128.682 23.0185C128.682 24.023 128.395 24.925 127.821 25.7245C127.267 26.5035 126.458 27.1185 125.392 27.5695C124.346 28.0205 123.126 28.246 121.732 28.246ZM128.462 19.39C128.462 17.627 128.79 16.0792 129.446 14.7467C130.122 13.4142 131.034 12.3892 132.182 11.6717C133.33 10.9542 134.612 10.5955 136.026 10.5955C137.236 10.5955 138.291 10.8415 139.193 11.3335C140.116 11.8255 140.823 12.4712 141.315 13.2707V10.8415H146.573V28H141.315V25.5707C140.803 26.3702 140.085 27.016 139.163 27.508C138.261 28 137.205 28.246 135.995 28.246C134.601 28.246 133.33 27.8873 132.182 27.1697C131.034 26.4317 130.122 25.3965 129.446 24.064C128.79 22.711 128.462 21.153 128.462 19.39ZM141.315 19.4207C141.315 18.1087 140.946 17.0735 140.208 16.315C139.491 15.5565 138.609 15.1772 137.564 15.1772C136.518 15.1772 135.626 15.5565 134.888 16.315C134.171 17.053 133.812 18.078 133.812 19.39C133.812 20.702 134.171 21.7475 134.888 22.5265C135.626 23.285 136.518 23.6642 137.564 23.6642C138.609 23.6642 139.491 23.285 140.208 22.5265C140.946 21.768 141.315 20.7327 141.315 19.4207ZM164.16 19.144C164.16 19.636 164.13 20.1485 164.068 20.6815H152.168C152.25 21.7475 152.588 22.5675 153.183 23.1415C153.798 23.695 154.546 23.9717 155.427 23.9717C156.739 23.9717 157.652 23.4182 158.164 22.3112H163.761C163.474 23.4387 162.951 24.4535 162.192 25.3555C161.454 26.2575 160.522 26.9647 159.394 27.4772C158.267 27.9897 157.006 28.246 155.612 28.246C153.931 28.246 152.434 27.8873 151.122 27.1697C149.81 26.4522 148.785 25.4272 148.047 24.0947C147.309 22.7622 146.94 21.2042 146.94 19.4207C146.94 17.6372 147.299 16.0792 148.017 14.7467C148.755 13.4142 149.78 12.3892 151.092 11.6717C152.404 10.9542 153.91 10.5955 155.612 10.5955C157.272 10.5955 158.748 10.944 160.04 11.641C161.331 12.338 162.336 13.3322 163.053 14.6237C163.791 15.9152 164.16 17.422 164.16 19.144ZM158.779 17.7602C158.779 16.8582 158.472 16.1407 157.857 15.6077C157.242 15.0747 156.473 14.8082 155.55 14.8082C154.669 14.8082 153.921 15.0645 153.306 15.577C152.711 16.0895 152.342 16.8172 152.199 17.7602H158.779ZM163.497 19.4207C163.497 17.6372 163.856 16.0792 164.573 14.7467C165.311 13.4142 166.326 12.3892 167.618 11.6717C168.93 10.9542 170.426 10.5955 172.107 10.5955C174.26 10.5955 176.053 11.1592 177.488 12.2867C178.944 13.4142 179.897 15.003 180.348 17.053H174.752C174.28 15.741 173.368 15.085 172.015 15.085C171.051 15.085 170.283 15.4642 169.709 16.2227C169.135 16.9607 168.848 18.0267 168.848 19.4207C168.848 20.8147 169.135 21.891 169.709 22.6495C170.283 23.3875 171.051 23.7565 172.015 23.7565C173.368 23.7565 174.28 23.1005 174.752 21.7885H180.348C179.897 23.7975 178.944 25.376 177.488 26.524C176.033 27.672 174.239 28.246 172.107 28.246C170.426 28.246 168.93 27.8873 167.618 27.1697C166.326 26.4522 165.311 25.4272 164.573 24.0947C163.856 22.7622 163.497 21.2042 163.497 19.4207Z" fill="#FEFCFB"/>
<path d="M17.375 7.14054C19.3703 5.81487 22.0798 5 25.0625 5C28.047 5 30.7547 5.81487 32.75 7.14054V29.3489C30.7547 28.0232 28.047 27.2083 25.0625 27.2083C22.0798 27.2083 19.3703 28.0232 17.375 29.3489M17.375 7.14054V29.3489V7.14054ZM17.375 7.14054C15.3797 5.81487 12.6703 5 9.6875 5C6.70475 5 3.99533 5.81487 2 7.14054V29.3489C3.99533 28.0232 6.70475 27.2083 9.6875 27.2083C12.6703 27.2083 15.3797 28.0232 17.375 29.3489V7.14054Z" stroke="#FEFCFB" stroke-width="3.41667" stroke-linecap="round" stroke-linejoin="round"/>
</svg>
