<svg width="29" height="30" viewBox="0 0 29 30" fill="none" xmlns="http://www.w3.org/2000/svg">
<path d="M19.4095 10.0624V19.5495V10.0624ZM14.6659 13.6201V19.5495V13.6201ZM9.92238 17.1777V19.5495V17.1777ZM7.55061 24.2931H21.7813C22.4103 24.2931 23.0136 24.0432 23.4583 23.5984C23.9031 23.1536 24.153 22.5503 24.153 21.9213V7.69065C24.153 7.06162 23.9031 6.45835 23.4583 6.01355C23.0136 5.56876 22.4103 5.31888 21.7813 5.31888H7.55061C6.92157 5.31888 6.3183 5.56876 5.87351 6.01355C5.42872 6.45835 5.17883 7.06162 5.17883 7.69065V21.9213C5.17883 22.5503 5.42872 23.1536 5.87351 23.5984C6.3183 24.0432 6.92157 24.2931 7.55061 24.2931Z" stroke="white" stroke-width="2.37177" stroke-linecap="round" stroke-linejoin="round"/>
</svg>
